<mxfile host="app.diagrams.net" modified="2023-05-11T13:48:24.857Z" agent="Mozilla/5.0 (Windows NT 10.0; Win64; x64) AppleWebKit/537.36 (KHTML, like Gecko) Chrome/113.0.0.0 Safari/537.36 Edg/113.0.1774.35" etag="-9g72hONN1QEKAUY7aOe" version="21.2.9" type="github">
  <diagram id="C5RBs43oDa-KdzZeNtuy" name="Page-1">
    <mxGraphModel dx="1560" dy="408" grid="1" gridSize="10" guides="1" tooltips="1" connect="1" arrows="1" fold="1" page="1" pageScale="1" pageWidth="827" pageHeight="1169" math="0" shadow="0">
      <root>
        <mxCell id="WIyWlLk6GJQsqaUBKTNV-0" />
        <mxCell id="WIyWlLk6GJQsqaUBKTNV-1" parent="WIyWlLk6GJQsqaUBKTNV-0" />
        <mxCell id="pt_M3kR0GjpwDkTq6W2H-0" value="Imovel" style="swimlane;fontStyle=0;childLayout=stackLayout;horizontal=1;startSize=26;fillColor=none;horizontalStack=0;resizeParent=1;resizeParentMax=0;resizeLast=0;collapsible=1;marginBottom=0;whiteSpace=wrap;html=1;" vertex="1" parent="WIyWlLk6GJQsqaUBKTNV-1">
          <mxGeometry x="70" y="50" width="180" height="140" as="geometry" />
        </mxCell>
        <mxCell id="pt_M3kR0GjpwDkTq6W2H-3" value="+ id_imovel&lt;br&gt;+ id_cliente&lt;br&gt;+ preco : float&lt;br&gt;+ tamanho : float&lt;br&gt;+ detalhes_imovel&lt;br&gt;+ localizacao&lt;br&gt;+ tipo : tipo_imovel" style="text;strokeColor=none;fillColor=none;align=left;verticalAlign=top;spacingLeft=4;spacingRight=4;overflow=hidden;rotatable=0;points=[[0,0.5],[1,0.5]];portConstraint=eastwest;whiteSpace=wrap;html=1;" vertex="1" parent="pt_M3kR0GjpwDkTq6W2H-0">
          <mxGeometry y="26" width="180" height="114" as="geometry" />
        </mxCell>
        <mxCell id="pt_M3kR0GjpwDkTq6W2H-5" value="Localizacao" style="swimlane;fontStyle=0;childLayout=stackLayout;horizontal=1;startSize=26;fillColor=none;horizontalStack=0;resizeParent=1;resizeParentMax=0;resizeLast=0;collapsible=1;marginBottom=0;whiteSpace=wrap;html=1;" vertex="1" parent="WIyWlLk6GJQsqaUBKTNV-1">
          <mxGeometry x="330" y="50" width="140" height="140" as="geometry">
            <mxRectangle x="260" y="50" width="100" height="30" as="alternateBounds" />
          </mxGeometry>
        </mxCell>
        <mxCell id="pt_M3kR0GjpwDkTq6W2H-6" value="+ id_imovel&lt;br&gt;+ numero : int&lt;br&gt;+ rua : string&lt;br&gt;+ bairro : string&lt;br&gt;+ estado : string&lt;br&gt;+ pais : string&lt;br&gt;+ vgv : float" style="text;strokeColor=none;fillColor=none;align=left;verticalAlign=top;spacingLeft=4;spacingRight=4;overflow=hidden;rotatable=0;points=[[0,0.5],[1,0.5]];portConstraint=eastwest;whiteSpace=wrap;html=1;" vertex="1" parent="pt_M3kR0GjpwDkTq6W2H-5">
          <mxGeometry y="26" width="140" height="114" as="geometry" />
        </mxCell>
        <mxCell id="pt_M3kR0GjpwDkTq6W2H-9" value="Tipo_imovel" style="swimlane;fontStyle=0;childLayout=stackLayout;horizontal=1;startSize=26;fillColor=none;horizontalStack=0;resizeParent=1;resizeParentMax=0;resizeLast=0;collapsible=1;marginBottom=0;whiteSpace=wrap;html=1;" vertex="1" parent="WIyWlLk6GJQsqaUBKTNV-1">
          <mxGeometry x="-170" y="340" width="140" height="80" as="geometry">
            <mxRectangle x="260" y="50" width="100" height="30" as="alternateBounds" />
          </mxGeometry>
        </mxCell>
        <mxCell id="pt_M3kR0GjpwDkTq6W2H-10" value="+ id_imovel&lt;br&gt;+ tipo_nome : string&lt;br&gt;+ classificacao : string" style="text;strokeColor=none;fillColor=none;align=left;verticalAlign=top;spacingLeft=4;spacingRight=4;overflow=hidden;rotatable=0;points=[[0,0.5],[1,0.5]];portConstraint=eastwest;whiteSpace=wrap;html=1;" vertex="1" parent="pt_M3kR0GjpwDkTq6W2H-9">
          <mxGeometry y="26" width="140" height="54" as="geometry" />
        </mxCell>
        <mxCell id="pt_M3kR0GjpwDkTq6W2H-23" value="Cliente" style="swimlane;fontStyle=0;childLayout=stackLayout;horizontal=1;startSize=26;fillColor=none;horizontalStack=0;resizeParent=1;resizeParentMax=0;resizeLast=0;collapsible=1;marginBottom=0;whiteSpace=wrap;html=1;" vertex="1" parent="WIyWlLk6GJQsqaUBKTNV-1">
          <mxGeometry x="90" y="260" width="140" height="160" as="geometry">
            <mxRectangle x="260" y="50" width="100" height="30" as="alternateBounds" />
          </mxGeometry>
        </mxCell>
        <mxCell id="pt_M3kR0GjpwDkTq6W2H-25" value="+ id_cliente&lt;br&gt;+ nome : string&lt;br&gt;+ detalhes_cliente&lt;br&gt;+ gÃªnero : string&lt;br&gt;+ idade : int&lt;br&gt;+ valor_base : float&lt;br&gt;+ valor_max : float&lt;br&gt;+ classificacao : string" style="text;strokeColor=none;fillColor=none;align=left;verticalAlign=top;spacingLeft=4;spacingRight=4;overflow=hidden;rotatable=0;points=[[0,0.5],[1,0.5]];portConstraint=eastwest;whiteSpace=wrap;html=1;" vertex="1" parent="pt_M3kR0GjpwDkTq6W2H-23">
          <mxGeometry y="26" width="140" height="134" as="geometry" />
        </mxCell>
        <mxCell id="pt_M3kR0GjpwDkTq6W2H-30" value="Detalhes_cliente" style="swimlane;fontStyle=0;childLayout=stackLayout;horizontal=1;startSize=26;fillColor=none;horizontalStack=0;resizeParent=1;resizeParentMax=0;resizeLast=0;collapsible=1;marginBottom=0;whiteSpace=wrap;html=1;" vertex="1" parent="WIyWlLk6GJQsqaUBKTNV-1">
          <mxGeometry x="330" y="230" width="140" height="200" as="geometry">
            <mxRectangle x="260" y="50" width="100" height="30" as="alternateBounds" />
          </mxGeometry>
        </mxCell>
        <mxCell id="pt_M3kR0GjpwDkTq6W2H-31" value="+ id_cliente&lt;br&gt;+ disponibilidade&amp;nbsp;&lt;br&gt;+ localizacao : localizao&lt;br&gt;+ tipo_imovel : imovel&lt;br&gt;+ qnt_ quartos : int&lt;br&gt;+ qnt_banheiros : int&lt;br&gt;+ qnt_vagas : int&lt;br&gt;+ mobilhado : bool&lt;br&gt;+ suite : bool&lt;br&gt;+ pet_friendly : bool" style="text;strokeColor=none;fillColor=none;align=left;verticalAlign=top;spacingLeft=4;spacingRight=4;overflow=hidden;rotatable=0;points=[[0,0.5],[1,0.5]];portConstraint=eastwest;whiteSpace=wrap;html=1;" vertex="1" parent="pt_M3kR0GjpwDkTq6W2H-30">
          <mxGeometry y="26" width="140" height="174" as="geometry" />
        </mxCell>
        <mxCell id="pt_M3kR0GjpwDkTq6W2H-32" value="Detalhes_imovel" style="swimlane;fontStyle=0;childLayout=stackLayout;horizontal=1;startSize=26;fillColor=none;horizontalStack=0;resizeParent=1;resizeParentMax=0;resizeLast=0;collapsible=1;marginBottom=0;whiteSpace=wrap;html=1;" vertex="1" parent="WIyWlLk6GJQsqaUBKTNV-1">
          <mxGeometry x="-180" y="20" width="160" height="200" as="geometry">
            <mxRectangle x="260" y="50" width="100" height="30" as="alternateBounds" />
          </mxGeometry>
        </mxCell>
        <mxCell id="pt_M3kR0GjpwDkTq6W2H-33" value="+ id_imovel&lt;br&gt;+ disponibilidade : string&lt;br&gt;+ localizacao : localizao&lt;br&gt;+ tipo_imovel : tipo_imovel&lt;br&gt;+ qnt_ quartos : int&lt;br&gt;+ qnt_banheiros : int&lt;br&gt;+ qnt_vagas : int&lt;br&gt;+ mobilhado : bool&lt;br&gt;+ suite : bool&lt;br&gt;+ pet_friendly : bool" style="text;strokeColor=none;fillColor=none;align=left;verticalAlign=top;spacingLeft=4;spacingRight=4;overflow=hidden;rotatable=0;points=[[0,0.5],[1,0.5]];portConstraint=eastwest;whiteSpace=wrap;html=1;" vertex="1" parent="pt_M3kR0GjpwDkTq6W2H-32">
          <mxGeometry y="26" width="160" height="174" as="geometry" />
        </mxCell>
        <mxCell id="pt_M3kR0GjpwDkTq6W2H-37" style="edgeStyle=orthogonalEdgeStyle;rounded=0;orthogonalLoop=1;jettySize=auto;html=1;entryX=0.554;entryY=0.026;entryDx=0;entryDy=0;entryPerimeter=0;exitX=0.551;exitY=0.996;exitDx=0;exitDy=0;exitPerimeter=0;" edge="1" parent="WIyWlLk6GJQsqaUBKTNV-1" source="pt_M3kR0GjpwDkTq6W2H-33" target="pt_M3kR0GjpwDkTq6W2H-9">
          <mxGeometry relative="1" as="geometry">
            <Array as="points">
              <mxPoint x="-92" y="255" />
              <mxPoint x="-92" y="322" />
              <mxPoint x="-92" y="322" />
            </Array>
          </mxGeometry>
        </mxCell>
        <mxCell id="pt_M3kR0GjpwDkTq6W2H-44" value="" style="edgeStyle=orthogonalEdgeStyle;rounded=0;orthogonalLoop=1;jettySize=auto;html=1;" edge="1" parent="WIyWlLk6GJQsqaUBKTNV-1" source="pt_M3kR0GjpwDkTq6W2H-3" target="pt_M3kR0GjpwDkTq6W2H-6">
          <mxGeometry relative="1" as="geometry" />
        </mxCell>
        <mxCell id="pt_M3kR0GjpwDkTq6W2H-45" value="" style="edgeStyle=orthogonalEdgeStyle;rounded=0;orthogonalLoop=1;jettySize=auto;html=1;" edge="1" parent="WIyWlLk6GJQsqaUBKTNV-1" source="pt_M3kR0GjpwDkTq6W2H-3" target="pt_M3kR0GjpwDkTq6W2H-33">
          <mxGeometry relative="1" as="geometry" />
        </mxCell>
        <mxCell id="pt_M3kR0GjpwDkTq6W2H-46" value="" style="edgeStyle=orthogonalEdgeStyle;rounded=0;orthogonalLoop=1;jettySize=auto;html=1;" edge="1" parent="WIyWlLk6GJQsqaUBKTNV-1" source="pt_M3kR0GjpwDkTq6W2H-25" target="pt_M3kR0GjpwDkTq6W2H-31">
          <mxGeometry relative="1" as="geometry">
            <Array as="points">
              <mxPoint x="250" y="343" />
              <mxPoint x="250" y="343" />
            </Array>
          </mxGeometry>
        </mxCell>
      </root>
    </mxGraphModel>
  </diagram>
</mxfile>
